<?xml version="1.0" encoding="UTF-8"?><svg id="_レイヤー_1" xmlns="http://www.w3.org/2000/svg" width="1326.606" height="285" viewBox="0 0 1326.606 285"><defs><style>.cls-1{isolation:isolate;}.cls-2{fill:#224c77;}.cls-3{fill:#234c78;}</style></defs><g class="cls-1"><polygon class="cls-2" points="164.829 0 29.524 246.136 105.662 246.136 164.829 0"/><polygon class="cls-2" points="153.292 73.072 112.735 249.982 83.536 249.982 79.521 257.674 178.295 257.674 153.292 73.072"/><polygon class="cls-2" points="9.771 263.792 162.732 263.792 150.717 281.798 0 281.798 9.771 263.792"/><polygon class="cls-2" points="208.882 261.52 219.342 261.52 206.836 281.798 196.253 281.798 208.882 261.52"/><polygon class="cls-2" points="178.295 262.339 193.688 262.339 181.961 282.497 167.072 282.497 178.295 262.339"/><polygon class="cls-2" points="233.665 261.52 241.747 261.17 228.855 282.497 221.159 282.497 233.665 261.52"/><polygon class="cls-2" points="267.978 261.52 281.125 261.52 270.115 281.798 256.433 281.798 267.978 261.52"/><polygon class="cls-2" points="296.288 260.471 311.91 260.471 300.484 280.399 285.1 280.749 296.288 260.471"/></g><g class="cls-1"><path class="cls-3" d="m352.807,218.816c0-3.687-1.018-4.564-4.239-4.564h-14.581c-2.882,0-4.916-1.931-4.916-5.794,0-4.038,1.865-5.793,4.916-5.793h18.82c8.816,0,12.207,4.565,12.207,12.991v32.303c5.087,11.059,13.564,15.624,22.042,17.555,7.29,1.58,19.667,2.457,35.265,2.633h5.425c19.159,0,38.148-.877,52.559-1.931h.848c3.391,0,5.595,2.283,5.595,5.969,0,4.039-1.696,6.672-5.764,6.847-15.768,1.054-36.961,1.229-58.155,1.229-15.598,0-27.975-1.405-36.791-3.16-9.833-2.107-20.006-7.198-27.466-19.135-6.274,7.198-13.734,14.219-19.837,18.784-1.526,1.229-3.052,1.756-4.578,1.756-1.865,0-3.56-.878-4.747-2.809-1.018-1.228-1.526-2.808-1.526-4.213,0-1.931.847-3.862,3.052-5.267,6.781-4.564,14.75-10.884,21.871-18.609v-28.791Zm33.739-68.467c0,3.511-2.204,5.091-6.103,5.091-3.73,0-6.103-1.58-6.103-5.091v-7.372h-39.843c-2.883,0-4.409-2.108-4.409-5.442,0-3.511,1.526-5.618,4.409-5.618h39.843v-7.549c0-3.336,2.373-5.091,6.103-5.091,3.899,0,6.103,1.756,6.103,5.091v7.549h39.843v-7.549c0-3.336,2.374-5.091,6.104-5.091,3.899,0,6.103,1.756,6.103,5.091v7.549h41.369c2.883,0,4.408,2.107,4.408,5.618,0,3.335-1.525,5.442-4.408,5.442h-41.369v4.915c0,3.336-2.204,5.091-6.103,5.091-3.73,0-6.104-1.756-6.104-5.091v-4.915h-39.843v7.372Zm-22.549,25.632c1.357,1.756,2.034,3.511,2.034,5.091,0,1.756-.678,3.16-2.204,4.389-1.357,1.229-3.052,1.931-4.578,1.931-1.696,0-3.56-.877-4.747-2.808-4.917-7.023-11.869-15.098-18.312-20.891-1.186-1.054-1.865-2.458-1.865-4.039s.679-3.159,2.205-4.389c1.356-1.229,2.882-1.756,4.238-1.756,1.696,0,3.222.703,4.748,1.931,6.273,5.442,13.055,13.167,18.48,20.54Zm90.876-17.906c6.782,0,10.512,3.159,10.512,7.197,0,2.634-1.696,5.793-5.087,8.427-6.103,4.739-12.885,8.954-20.345,12.816,11.529,3.511,24.583,5.442,39.674,5.969,3.73.175,5.595,1.931,5.595,4.916v.877c-.339,3.687-2.204,5.442-5.595,5.442h-.508c-19.498-1.229-36.792-4.916-51.712-11.587-15.429,6.32-32.722,10.357-51.372,12.113h-1.018c-3.391,0-5.087-1.58-5.425-4.564v-1.054c0-2.808,1.357-4.389,4.408-4.739,16.107-1.229,30.01-4.038,41.878-7.901-6.104-3.51-11.699-7.9-16.616-12.99-5.595,3.335-11.529,6.495-17.972,8.777-.847.351-1.696.526-2.373.526-2.204,0-3.899-1.228-4.747-3.51-.34-.703-.509-1.405-.509-2.283,0-2.107,1.187-3.862,3.56-4.564,14.92-4.74,26.619-12.289,34.079-20.891,1.357-1.58,2.883-2.282,4.578-2.282,1.017,0,2.034.175,3.051.526,2.034.702,3.052,2.282,3.052,3.862,0,1.054-.508,2.107-1.357,2.985-.678.702-1.357,1.228-2.034,1.931h36.283Zm-65.953,77.069c-2.544,0-3.899-1.931-3.899-4.565s1.356-4.389,3.899-4.389h31.704v-8.778h-35.604c-2.544,0-3.9-1.931-3.9-4.564s1.357-4.565,3.9-4.565h35.604v-5.442c0-3.335,2.034-4.739,5.764-4.739s5.595,1.405,5.595,4.739v5.442h38.318c2.373,0,3.73,1.931,3.73,4.565s-1.357,4.564-3.73,4.564h-38.318v8.778h33.57c2.373,0,3.73,1.756,3.73,4.389s-1.357,4.565-3.73,4.565h-33.57v8.954h45.439c2.543,0,3.73,1.931,3.73,4.739,0,2.457-1.187,4.564-3.73,4.564h-45.439v7.373c0,3.336-1.865,4.74-5.595,4.74s-5.764-1.405-5.764-4.74v-7.373h-40.521c-2.374,0-3.73-2.107-3.73-4.564,0-2.808,1.356-4.739,3.73-4.739h40.521v-8.954h-31.704Zm19.158-68.116c-.339.175-.678.352-.847.703,5.764,5.793,12.885,10.357,20.176,13.869,8.138-3.511,15.089-7.549,21.363-12.113.847-.703,1.357-1.229,1.357-1.58,0-.526-.848-.878-2.544-.878h-39.504Z"/><path class="cls-3" d="m506.232,181.773c-2.883,0-4.578-2.282-4.578-5.969,0-3.511,1.696-5.969,4.578-5.969h62.562v-9.831c0-3.16,2.544-4.916,6.443-4.916,4.069,0,6.273,1.756,6.273,4.916v9.831h66.293c3.052,0,4.748,2.457,4.748,5.969,0,3.687-1.696,5.969-4.748,5.969h-66.293v32.829c6.443,7.9,16.107,18.258,26.28,26.158,13.055,10.006,27.127,17.204,42.216,22.471,2.883,1.053,4.578,3.159,4.578,5.969,0,1.053-.169,2.107-.508,3.16-1.018,3.51-3.391,5.09-6.104,5.09-1.017,0-2.034-.175-3.052-.702-17.293-6.847-33.23-16.327-47.472-28.967-6.612-5.969-12.716-12.639-17.293-18.96.678,4.74,1.186,11.236,1.186,15.801v35.462c0,2.984-2.204,4.915-6.103,4.915s-6.443-1.931-6.443-4.915v-35.462c0-5.091.848-10.534,1.357-15.449-4.577,5.618-10.681,13.518-21.193,22.119-11.359,9.305-25.94,18.434-41.199,25.105-1.018.351-1.865.526-2.883.526-2.712,0-5.087-1.756-6.103-4.916-.34-1.053-.509-2.107-.509-2.984,0-2.985,1.696-5.091,4.409-6.144,15.089-5.97,29.501-14.22,40.351-22.471,9.834-7.549,18.82-16.853,25.771-25.632v-33.005h-62.562Zm48.998-26.158c0,3.336-2.373,4.916-6.274,4.916-3.56,0-6.442-1.58-6.442-4.916v-9.129h-39.165c-2.882,0-4.917-2.282-4.917-5.969,0-3.511,2.035-5.969,4.917-5.969h39.165v-9.831c0-3.336,2.882-4.916,6.442-4.916,3.9,0,6.274,1.58,6.274,4.916v9.831h41.03v-9.831c0-3.336,2.543-4.916,6.103-4.916,3.899,0,6.613,1.58,6.613,4.916v9.831h41.199c2.883,0,4.748,2.457,4.748,5.969,0,3.687-1.865,5.969-4.748,5.969h-41.199v9.129c0,3.336-2.713,4.916-6.613,4.916-3.56,0-6.103-1.58-6.103-4.916v-9.129h-41.03v9.129Zm-42.047,80.756c-1.526,1.229-3.052,1.931-4.578,1.931-1.696,0-3.391-.702-4.748-2.282-1.017-1.405-1.695-2.984-1.695-4.564,0-1.405.678-2.985,1.865-4.038,11.02-9.305,20.006-21.068,25.262-37.921.678-2.457,2.543-3.511,4.916-3.511.848,0,1.696.176,2.544.352,3.051,1.053,4.577,3.159,4.577,5.442,0,.702-.169,1.404-.339,1.931-1.357,3.687-2.883,7.197-4.408,10.533,5.595,6.496,11.02,10.358,16.615,14.22,1.357.877,2.034,2.633,2.034,4.389,0,1.405-.508,2.809-1.187,4.038-1.357,1.756-3.222,2.985-5.087,2.985-.847,0-1.865-.351-2.712-.878-6.103-4.389-10.512-8.602-15.26-14.395-5.255,8.777-11.359,15.975-17.801,21.768Zm91.723-8.777c-1.186,1.228-2.712,1.756-4.069,1.756-1.696,0-3.391-.878-4.577-2.283-1.187-1.404-1.865-2.808-1.865-4.389,0-1.405.678-2.808,2.034-4.213,7.968-8.075,12.546-16.327,16.446-28.44.847-2.458,2.543-3.687,4.747-3.687,1.018,0,1.865.175,3.052.526,2.713.877,4.069,2.985,4.069,5.091,0,.877-.169,1.579-.339,2.282-1.017,2.633-2.204,5.267-3.222,7.9,8.308,11.06,18.141,17.732,27.975,23.173,1.696,1.054,2.882,3.16,2.882,5.442,0,1.229-.339,2.458-1.017,3.687-1.187,2.283-3.222,3.336-5.256,3.336-1.018,0-2.034-.351-2.883-.877-9.664-6.145-19.837-13.87-27.127-24.227-3.221,5.793-6.781,10.708-10.851,14.922Z"/><path class="cls-3" d="m682.206,158.951c-3.56,0-5.764-3.336-5.764-7.373,0-4.213,2.373-7.549,5.764-7.549l114.952-.175c6.442,0,11.868,2.107,14.92,6.495,1.865,2.634,2.883,5.794,2.883,9.305,0,3.862-1.018,7.901-3.391,12.465-12.377,23.525-35.096,45.469-58.493,61.269,7.29,8.777,14.241,17.029,19.836,25.631,1.018,1.58,1.357,2.985,1.357,4.565,0,2.985-1.696,5.618-3.73,7.198-1.357.877-2.712,1.404-4.238,1.404-2.373,0-4.917-1.404-6.613-4.038-16.107-23.875-37.299-49.506-58.493-69.169-1.696-1.579-2.544-3.335-2.544-5.09,0-1.931,1.018-3.862,2.883-5.267,1.526-1.405,3.052-1.931,4.578-1.931,1.865,0,3.73.877,5.425,2.282,10.851,9.655,21.871,20.891,32.213,32.829,21.363-13.694,41.878-33.882,52.22-53.896,1.018-1.931,1.526-3.687,1.526-4.916,0-2.808-2.034-4.213-6.273-4.213l-109.018.175Z"/><path class="cls-3" d="m881.239,214.427c0,4.564-3.052,7.198-7.63,7.198-4.408,0-7.629-2.458-7.629-7.023v-77.069c0-4.565,3.222-7.198,7.629-7.198,4.578,0,7.63,2.457,7.63,7.021v77.07Zm68.834-76.718c0-4.565,2.883-7.373,7.29-7.373,4.577,0,7.968,2.457,7.968,7.021v57.232c0,26.333-6.441,44.767-20.853,57.934-13.395,12.113-33.231,20.189-52.051,22.471h-1.187c-4.069,0-6.782-2.457-7.629-6.144-.169-.703-.169-1.229-.169-1.931,0-3.511,2.204-6.321,6.103-6.847,17.125-2.282,34.079-9.305,44.76-19.311,11.02-10.358,15.767-25.456,15.767-48.278v-54.773Z"/><path class="cls-3" d="m1020.931,211.618c-4.24,0-6.613-2.808-6.613-7.549,0-4.564,2.372-7.9,6.782-7.9h128.684c4.408,0,6.782,3.336,6.782,7.9,0,4.74-2.374,7.549-6.613,7.549h-129.023Z"/><path class="cls-3" d="m1190.463,185.635h-.341c-3.73,0-5.424-3.159-5.424-7.198,0-3.862,1.695-7.021,5.424-7.021h65.277v-36.516c0-4.739,2.711-7.023,7.46-7.023,4.577,0,7.629,2.283,7.629,7.198v36.341h50.694c3.73,0,5.424,3.159,5.424,7.021,0,4.039-1.695,7.198-5.255,7.198h-51.202c-1.188,32.654-6.104,47.752-16.277,61.269-10.512,14.044-28.653,24.753-45.437,29.318-.849.175-1.696.351-2.374.351-3.052,0-5.596-1.58-6.613-5.091-.339-1.053-.508-1.931-.508-2.984,0-2.985,1.695-5.442,5.255-6.321,14.072-3.336,29.331-13.167,38.149-25.28,8.138-11.06,12.207-26.333,12.884-51.263h-64.764Z"/></g><polygon class="cls-2" points="327.754 33.051 327.754 89.728 346.274 89.728 346.274 67.241 377.235 67.241 377.235 89.728 394.928 89.728 394.928 33.685 377.63 33.685 377.63 54.642 346.347 54.642 346.347 33.051 327.754 33.051"/><path class="cls-2" d="m449.976,46.245h-35.426c-6.009,0-10.926,4.917-10.926,10.926v21.632c0,6.009,4.917,10.926,10.926,10.926h35.426c6.009,0,10.926-4.917,10.926-10.926v-21.632c0-6.009-4.917-10.926-10.926-10.926Zm-4.968,26.334c0,3-2.454,5.454-5.454,5.454h-13.682c-3,0-5.454-2.454-5.454-5.454v-9.464c0-3,2.454-5.454,5.454-5.454h13.682c3,0,5.454,2.454,5.454,5.454v9.464Z"/><path class="cls-2" d="m468.699,45.852h15.926l-.032,23.391c0,4.588,3.65,8.329,8.236,8.443.151.004.304.005.46.004s.31-.005.462-.011c5.3-.213,9.434-3.133,9.434-8.436v-23.488h16.234v43.596h-15.54l-.094-3.614s-.9,2.399-8.996,3.599-23.391.464-26.09-14.012v-29.471Z"/><path class="cls-2" d="m525.977,46.212h15.594v4.198l4.397-2.749c.961-.619,2.073-.964,3.215-.995l18.095-.502v11.69h-14.062c-1.837,0-3.629.567-5.13,1.625-1.012.713-2.196,1.606-3.266,2.563-1.68,1.503-2.646,3.645-2.662,5.899-.055,7.597-.272,21.787-.272,21.787h-15.309l-.6-43.516Z"/><rect class="cls-2" x="630.336" y="45.346" width="15.594" height="44.383"/><rect class="cls-2" x="630.336" y="33.35" width="15.594" height="10.196"/><path class="cls-2" d="m690.012,89.694s-.046-56.678,0-56.678c0,0,23.679-.033,23.691,0,0,0,9.577,27.006,12.413,34.766.249.682,1.223.653,1.433-.043l10.445-34.723c.011-.035,23.691,0,23.691,0,.046,0,0,56.678,0,56.678,0,.047-15.894.046-15.894,0,0,0,0-24.037,0-32.087,0-.6-.425-.895-.766-.56-.258.254-.439.576-.549.922-1.123,3.514-10.646,31.725-10.68,31.725h-13.795c-.03,0-9.596-26.09-11.995-33.587-.423-1.322-.9-.126-.9,0v33.587c0,.046-17.093.046-17.093,0Z"/><path class="cls-2" d="m829.31,46.212h15.594v4.198l4.397-2.749c.961-.619,2.073-.964,3.215-.995l18.095-.502v11.69h-14.062c-1.837,0-3.629.567-5.13,1.625-1.012.713-2.196,1.606-3.266,2.563-1.68,1.503-2.646,3.645-2.662,5.899-.055,7.597-.272,21.787-.272,21.787h-15.309l-.6-43.516Z"/><rect class="cls-2" x="879.538" y="45.346" width="15.594" height="44.383"/><rect class="cls-2" x="879.538" y="33.35" width="15.594" height="10.196"/><path class="cls-2" d="m956.608,89.627h-16.686l.034-24.329c0-4.772-3.824-8.663-8.629-8.782-.158-.004-.319-.005-.482-.004s-.325.005-.484.011c-5.552.222-9.884,3.258-9.884,8.775v24.43h-17.008v-45.344h16.281l.098,3.759s.987-2.45,9.47-3.697c5.302-.78,13.532-.791,19.649,2.986,3.67,2.266,6.58,5.896,7.64,11.543v30.652Z"/><path class="cls-2" d="m821.507,54.545l-.814-3.674c-.002-.009-.005-.018-.008-.027-.73-1.813-2.064-3.317-3.777-4.259l-1.94-1.067c-.922-.507-1.851-.752-2.903-.772l-23.691.3c-1.184-.023-3.987-.01-6.897.9-4.798,1.499-7.497,4.798-8.996,8.397-.655,1.572-.854,4.797-.892,5.542-.004.086.064.156.15.156h14.983c.083,0,.149-.067.15-.15.004-.686.268-3.517,4.303-4.047.007,0,.015-.001.022-.001h9.108c.967,0,2.85.538,3.047.595.012.004.021.008.032.015.912.585,2.982,1.801,2.684,3.813v1.724c0,.083-.068.15-.151.15l-22.872-.144c-1.126,0-5.078.841-5.303.889-.007.001-.013.003-.02.005-1.541.518-3.036,1.801-4.316,3.078-.851.849-1.564,1.822-2.117,2.888-.682,1.314-1.507,3.103-1.507,4.081v9.296c0,.373,1.582,3.26,4.198,5.098,2.435,1.711,5.897,2.395,6.382,2.393l18.658-.075c2.023.053,3.99-.666,5.503-2.01l1.014-.793c.429-.335,1.081-.247,1.349.226.05.087.08.18.08.274v2.234c0,.083.067.15.15.15h14.394c.083,0,.15-.067.15-.15v-33.623c0-.474-.052-.947-.154-1.41Zm-16.039,21.239c0,2.062-1.687,3.749-3.749,3.749h-13.195c-2.062,0-3.749-1.687-3.749-3.749h0c0-2.062,1.687-3.749,3.749-3.749h13.195c2.062,0,3.749,1.687,3.749,3.749h0Z"/><path class="cls-2" d="m623.577,54.545l-.814-3.674c-.002-.009-.005-.018-.008-.027-.73-1.813-2.064-3.317-3.777-4.259l-1.94-1.067c-.922-.507-1.851-.752-2.903-.772l-23.691.3c-1.184-.023-3.987-.01-6.897.9-4.798,1.499-7.497,4.798-8.996,8.397-.655,1.572-.854,4.797-.892,5.542-.004.086.064.156.15.156h14.983c.083,0,.149-.067.15-.15.004-.686.268-3.517,4.303-4.047.007,0,.015-.001.022-.001h9.108c.967,0,2.85.538,3.047.595.012.004.021.008.032.015.912.585,2.982,1.801,2.684,3.813v1.724c0,.083-.068.15-.151.15l-22.872-.144c-1.126,0-5.078.841-5.303.889-.007.001-.013.003-.02.005-1.541.518-3.036,1.801-4.316,3.078-.851.849-1.564,1.822-2.117,2.888-.682,1.314-1.507,3.103-1.507,4.081v9.296c0,.373,1.582,3.26,4.198,5.098,2.435,1.711,5.897,2.395,6.382,2.393l18.658-.075c2.023.053,3.99-.666,5.503-2.01l1.014-.793c.429-.335,1.081-.247,1.349.226.05.087.08.18.08.274v2.234c0,.083.067.15.15.15h14.394c.083,0,.15-.067.15-.15v-33.623c0-.474-.052-.947-.154-1.41Zm-16.039,21.239c0,2.062-1.687,3.749-3.749,3.749h-13.195c-2.062,0-3.749-1.687-3.749-3.749h0c0-2.062,1.687-3.749,3.749-3.749h13.195c2.062,0,3.749,1.687,3.749,3.749h0Z"/><path class="cls-2" d="m1016.724,54.545l-.814-3.674c-.002-.009-.005-.018-.008-.027-.73-1.813-2.064-3.317-3.777-4.259l-1.94-1.067c-.922-.507-1.851-.752-2.903-.772l-23.691.3c-1.184-.023-3.987-.01-6.897.9-4.798,1.499-7.497,4.798-8.996,8.397-.655,1.572-.854,4.797-.892,5.542-.004.086.064.156.15.156h14.983c.083,0,.149-.067.15-.15.004-.686.268-3.517,4.303-4.047.007,0,.015-.001.022-.001h9.108c.967,0,2.85.538,3.047.595.012.004.021.008.032.015.912.585,2.982,1.801,2.684,3.813v1.724c0,.083-.068.15-.151.15l-22.872-.144c-1.126,0-5.078.841-5.303.889-.007.001-.013.003-.02.005-1.541.518-3.036,1.801-4.316,3.078-.851.849-1.564,1.822-2.117,2.888-.682,1.314-1.507,3.103-1.507,4.081v9.296c0,.373,1.582,3.26,4.198,5.098,2.435,1.711,5.897,2.395,6.382,2.393l18.658-.075c2.023.053,3.99-.666,5.503-2.01l1.014-.793c.429-.335,1.081-.247,1.349.226.05.087.08.18.08.274v2.234c0,.083.067.15.15.15h14.394c.083,0,.15-.067.15-.15v-33.623c0-.474-.052-.947-.154-1.41Zm-16.039,21.239c0,2.062-1.687,3.749-3.749,3.749h-13.195c-2.062,0-3.749-1.687-3.749-3.749h0c0-2.062,1.687-3.749,3.749-3.749h13.195c2.062,0,3.749,1.687,3.749,3.749h0Z"/></svg>