<?xml version="1.0" encoding="UTF-8"?>
<svg xmlns="http://www.w3.org/2000/svg" xmlns:xlink="http://www.w3.org/1999/xlink" viewBox="0 0 821.1 898">
  <defs>
    <style>
      .cls-1 {
        fill: none;
      }

      .cls-2 {
        fill: #fff;
      }

      .cls-3 {
        fill: #efbda8;
      }

      .cls-4 {
        fill: #699e78;
      }

      .cls-5 {
        fill: #aa7b63;
      }

      .cls-6 {
        fill: #e2a58c;
      }

      .cls-7 {
        fill: #595349;
      }

      .cls-8 {
        fill: url(#_名称未設定グラデーション_36);
      }

      .cls-9 {
        fill: #527f62;
        opacity: .68;
      }
    </style>
    <radialGradient id="_名称未設定グラデーション_36" data-name="名称未設定グラデーション 36" cx="512" cy="121.55" fx="512" fy="121.55" r="72.83" gradientTransform="translate(936.7 444.79) rotate(-159.13) scale(1 1.24)" gradientUnits="userSpaceOnUse">
      <stop offset=".12" stop-color="#527f62"/>
      <stop offset=".22" stop-color="#5a8969"/>
      <stop offset=".41" stop-color="#659874"/>
      <stop offset=".57" stop-color="#699e78"/>
    </radialGradient>
  </defs>
  <g id="_レイヤー_3" data-name="レイヤー 3">
    <path d="m568.11,782.33c-139.73,0-253,12.09-253,27,0,4.96,12.55,9.61,34.41,13.6,22.41-4.2,55.18-6.86,91.7-6.86,67.52,0,122.26,9.07,122.28,20.25,1.53,0,3.07,0,4.61,0,139.73,0,253-12.09,253-27s-113.27-27-253-27Z"/>
  </g>
  <g id="_レイヤー_2" data-name="レイヤー 2">
    <line class="cls-1" x1="572.61" y1="197.2" x2="578.63" y2="217.9"/>
    <path class="cls-1" d="m0,364.16c0,18.88,16.16,34.16,36.14,34.16v-34.16H0Z"/>
    <path id="body" class="cls-2" d="m432.79,247.27v68.32c0,6.87,3.86,13.15,9.99,16.26l71.34,36.13c5.18,2.62,11.29,2.62,16.47,0l71.34-36.13c6.13-3.1,9.99-9.39,9.99-16.26v-68.32c0-6.87-3.86-13.15-9.99-16.26l-71.34-36.13c-5.18-2.62-11.29-2.62-16.47,0l-71.34,36.13c-6.13,3.1-9.99,9.39-9.99,16.26Z"/>
    <path class="cls-5" d="m559.78,228.77c-16.98,13.48-43.13,11.44-62.2-4.85-2.08-1.77-2.44-4.74-.77-6.4l26.39-26.19c1.56-1.55,4.28-1.34,6.08.47l30.37,30.61c1.93,1.94,1.98,4.89.13,6.35Z"/>
    <path class="cls-6" d="m559.75,225.2c-20.27,16.09-51.47,13.66-74.23-5.79-2.48-2.12-2.91-5.66-.92-7.64l31.49-31.25c1.86-1.85,5.11-1.6,7.26.57l36.25,36.53c2.3,2.32,2.36,5.83.15,7.58Z"/>
    <path class="cls-7" d="m451.3,423.29h31.24c13.49,0,24.45,10.96,24.45,24.45v120.96c0,27.51-22.34,49.85-49.85,49.85h-5.85c-13.49,0-24.45-10.96-24.45-24.45v-146.36c0-13.49,10.96-24.45,24.45-24.45Z" transform="translate(53.48 -43.38) rotate(5.64)"/>
    <path class="cls-2" d="m623.13,218.21h2.33c6.48,0,11.74,5.26,11.74,11.74v101.03c0,6.48-5.26,11.74-11.74,11.74h0c-13.27,0-24.04-10.77-24.04-24.04v-78.77c0-11.98,9.73-21.71,21.71-21.71Z" transform="translate(1295.88 213.7) rotate(150)"/>
    <path class="cls-6" d="m492.58,170.43l-7.45-12.39c-1.68-2.79.19-6.37,3.43-6.59l13.14-.9c3.25-.22,5.58,3.07,4.3,6.06l-5.69,13.29c-1.4,3.26-5.9,3.57-7.73.53Z"/>
    <circle class="cls-3" cx="498.26" cy="161.63" r="5.95"/>
    <path class="cls-5" d="m520.33,123.79c-5.33,0-10.28,2.12-14.41,5.75,2.58,14.59-1.98,31.01-8.51,45.03,4.4,10.77,13.01,18.09,22.92,18.09,14.38,0,26.04-15.42,26.04-34.43s-11.66-34.43-26.04-34.43Z"/>
    <g id="face">
      <ellipse class="cls-5" cx="528.45" cy="177.08" rx="26.04" ry="34.43"/>
      <path class="cls-6" d="m496.02,165.64c2.15,22.42,16.63,39.76,34.17,39.76,19.02,0,34.45-20.39,34.45-45.55s-15.42-45.55-34.45-45.55-34.45,20.39-34.45,45.55c0,1.96.09,3.9.28,5.8"/>
    </g>
    <path class="cls-8" d="m531.21,150.41l-42.43-.69c.36-23.77,19.41-43.12,42.43-43.12s42.44,19.78,42.44,43.81h-42.44Z"/>
    <path class="cls-9" d="m558.04,149.51c-6.97,0-13.48,1.22-19.79,2.39-5.47,1.02-10.64,1.98-15.39,1.98-6.61,0-12.94-1.18-19.06-2.33-5.63-1.05-10.95-2.05-16.11-2.05-.7,0-1.38,0-2.04.01v9.34s4.03,6.77,4.03,6.77c3.7.22,7.84.99,12.19,1.8,6.28,1.17,13.4,2.51,20.99,2.51,5.73,0,11.62-1.1,17.31-2.16,5.84-1.09,11.88-2.22,17.86-2.22,2.11,0,4.27.18,6.49.46l1.47-15.94c-2.65-.34-5.31-.56-7.96-.56Z"/>
    <path class="cls-4" d="m580.99,148.89c-.58-.71-1.21-1.39-1.92-2.01-.36-.31-.81-.51-1.27-.61-1.07-.22-2.14-.45-3.21-.67-5.07-1.09-10.31-2.21-15.52-2.21-6.07,0-11.74,1.22-17.23,2.39-4.76,1.02-9.26,1.98-13.4,1.98-5.75,0-11.26-1.18-16.59-2.33-4.9-1.05-9.54-2.05-14.03-2.05-10.73,0-14.87,1.36-18.52,2.56-.16.05-.32.1-.47.16-.87.28-1.65.77-2.27,1.44-.41.44-.81.89-1.2,1.34.08,0,.17,0,.25,0h105.38Z"/>
    <path class="cls-4" d="m469.43,163.78s.07,0,.11,0c-.04-.07-.07-.13-.11-.21,0,.06,0,.14,0,.21Z"/>
    <path class="cls-4" d="m580.99,148.89h-105.38c-.09,0-.17,0-.25,0-3.78,4.33-6.93,9.21-7.72,14.92.63,0,1.22-.01,1.79-.03,0-.07,0-.15,0-.21.04.07.07.14.11.21,6.24-.2,9.28-1.19,12.22-2.16,3.25-1.07,6.62-2.18,16.07-2.18,3.64,0,7.87.91,12.35,1.87,5.47,1.17,11.66,2.51,18.27,2.51,4.99,0,10.11-1.1,15.07-2.16,5.09-1.09,10.34-2.22,15.55-2.22,4.35,0,8.96.99,13.84,2.03,5.38,1.15,10.94,2.34,16.78,2.34v-.05c-3.8-4.36-5.08-10.4-8.71-14.88Z"/>
    <g>
      <path class="cls-5" d="m530.86,171.15l-3.33,6.72c-1.71,3.45.8,7.49,4.65,7.49h6.65c3.85,0,6.36-4.04,4.65-7.49l-3.33-6.72c-1.91-3.85-7.4-3.85-9.3,0Z"/>
      <path class="cls-6" d="m530.86,169.14l-3.33,6.72c-1.71,3.45.8,7.49,4.65,7.49h6.65c3.85,0,6.36-4.04,4.65-7.49l-3.33-6.72c-1.91-3.85-7.4-3.85-9.3,0Z"/>
    </g>
    <rect class="cls-3" x="526.76" y="187.93" width="17.51" height="2.43" rx="1.22" ry="1.22"/>
    <rect x="523.29" y="184.72" width="24.28" height="3.2" rx="1.6" ry="1.6"/>
    <path class="cls-6" d="m421.61,234.46h.02c14.66,0,26.55,11.9,26.55,26.55v73.69c0,7.15-5.8,12.96-12.96,12.96h0c-14.67,0-26.57-11.91-26.57-26.57v-73.67c0-7.15,5.8-12.96,12.96-12.96Z" transform="translate(167.94 -156.61) rotate(25.62)"/>
    <path class="cls-5" d="m409.09,296.86h0c6.48,0,11.74,5.26,11.74,11.74v77.81c0,6.48-5.26,11.74-11.74,11.74h-9.97c-6.48,0-11.74-5.26-11.74-11.74v-67.84c0-11.98,9.73-21.71,21.71-21.71Z" transform="translate(83.43 -78.21) rotate(12.32)"/>
    <path class="cls-6" d="m407.09,299.98h0c6.48,0,11.74,5.26,11.74,11.74v89.72c0,6.48-5.26,11.74-11.74,11.74h-9.97c-6.48,0-11.74-5.26-11.74-11.74v-79.75c0-11.98,9.73-21.71,21.71-21.71Z" transform="translate(85.32 -77.57) rotate(12.32)"/>
    <path class="cls-6" d="m388.29,441.89l17.72-34.08c1.44-2.77-.14-6.15-3.19-6.82l-19.62-4.29c-3.05-.67-5.9,1.75-5.74,4.86l1.9,38.36c.24,4.83,6.71,6.24,8.94,1.95Z"/>
    <path class="cls-5" d="m358.52,452.36c.71-16.71,16.67-29.58,35.7-28.77l-1.28,30.23-34.42-1.46Z"/>
    <g>
      <rect class="cls-6" x="350.82" y="454.74" width="12.05" height="20.81" rx="6.02" ry="6.02" transform="translate(20.01 -14.69) rotate(2.43)"/>
      <rect class="cls-6" x="362.79" y="456.74" width="12.05" height="20.81" rx="6.02" ry="6.02" transform="translate(-113.52 815.86) rotate(-87.57)"/>
      <rect class="cls-6" x="378.16" y="448.63" width="14.63" height="20.81" rx="6.02" ry="6.02" transform="translate(19.77 -15.9) rotate(2.43)"/>
      <path class="cls-6" d="m351.02,460.37c.86-20.22,20.18-35.79,43.2-34.82l-1.55,36.58-41.65-1.76Z"/>
    </g>
    <g>
      <rect class="cls-7" x="431.17" y="379.62" width="80.14" height="195.26" rx="25.22" ry="25.22" transform="translate(49.2 -44.02) rotate(5.64)"/>
      <rect class="cls-7" x="520.67" y="463.8" width="82.12" height="243.95" rx="22.7" ry="22.7" transform="translate(-40.8 42.06) rotate(-4.14)"/>
      <rect class="cls-7" x="515.31" y="389.69" width="82.12" height="243.95" rx="22.7" ry="22.7" transform="translate(-35.47 41.48) rotate(-4.14)"/>
      <rect class="cls-7" x="534.39" y="675" width="60.46" height="131.01" rx="15.14" ry="15.14" transform="translate(170.96 -103.4) rotate(12.32)"/>
      <rect class="cls-7" x="346.12" y="681.53" width="42.42" height="113.69" rx="17.39" ry="17.39" transform="translate(418.4 -84.74) rotate(30)"/>
      <rect class="cls-7" x="390.4" y="573.79" width="62.12" height="132.14" rx="13.51" ry="13.51" transform="translate(387.48 -125.58) rotate(30.83)"/>
      <path class="cls-7" d="m554.53,315.21h-64.36c-7.7,0-14.77,4.23-18.41,11.01l-33.44,62.21c-3.32,6.18-3.32,13.62,0,19.8l33.44,62.21c3.64,6.78,10.72,11.01,18.41,11.01h64.36c7.7,0,14.77-4.23,18.41-11.01l33.44-62.21c3.32-6.18,3.32-13.62,0-19.8l-33.44-62.21c-3.64-6.78-10.72-11.01-18.41-11.01Z"/>
      <rect class="cls-7" x="472.11" y="203.11" width="27.11" height="121.9" rx="11.1" ry="11.1" transform="translate(-39.71 92.07) rotate(-10.41)"/>
      <rect class="cls-7" x="549.61" y="202.68" width="22.21" height="120.38" rx="11.1" ry="11.1" transform="translate(28.56 -53.85) rotate(5.64)"/>
      <g>
        <g>
          <g>
            <circle class="cls-6" cx="573.2" cy="230.94" r="20.65"/>
            <rect class="cls-6" x="556.69" y="190.89" width="12.05" height="33.92" rx="6.02" ry="6.02" transform="translate(-6.45 397.34) rotate(-38.69)"/>
            <rect class="cls-6" x="573.63" y="200.37" width="12.05" height="27.22" rx="6.02" ry="6.02" transform="translate(-27.38 329.27) rotate(-31.02)"/>
            <rect class="cls-6" x="544.24" y="195.1" width="12.05" height="37.75" rx="6.02" ry="6.02" transform="translate(-13.01 390.9) rotate(-38.69)"/>
            <rect class="cls-6" x="542.93" y="209.8" width="12.05" height="26.55" rx="6.02" ry="6.02" transform="translate(-18.98 392.08) rotate(-38.69)"/>
          </g>
          <rect class="cls-6" x="546.52" y="221.36" width="12.05" height="20.81" rx="6.02" ry="6.02" transform="translate(31.83 528.2) rotate(-52.41)"/>
        </g>
        <path class="cls-5" d="m613,231.14h2.33c6.48,0,11.74,5.26,11.74,11.74v75.71c0,6.48-5.26,11.74-11.74,11.74h0c-13.27,0-24.04-10.77-24.04-24.04v-53.44c0-11.98,9.73-21.71,21.71-21.71Z" transform="translate(1277.11 219.27) rotate(150)"/>
        <path class="cls-6" d="m618.42,233.17h2.33c6.48,0,11.74,5.26,11.74,11.74v89.72c0,6.48-5.26,11.74-11.74,11.74h0c-13.27,0-24.04-10.77-24.04-24.04v-67.45c0-11.98,9.73-21.71,21.71-21.71Z" transform="translate(1291.75 233.43) rotate(150)"/>
      </g>
      <path class="cls-7" d="m605.81,845.07c2.08-21.05-33.46-41.76-79.47-46.3l-2.95,29.84c-.45,4.55,2.87,8.6,7.42,9.05l74.99,7.41Z"/>
      <path class="cls-7" d="m333.66,766.13l-31.62,21.03c-9.87,6.56-9.33,21.23,1,27.05l30.01,16.91c10.32,5.82,23.15-1.32,23.65-13.16l1.61-37.94c.55-12.97-13.85-21.08-24.65-13.89Z"/>
    </g>
  </g>
</svg>